<svg width="26" height="31" viewBox="0 0 26 31" fill="none" xmlns="http://www.w3.org/2000/svg">
<path d="M24.8078 30.0959H1.00994C0.452949 30.0959 0.00164795 29.6446 0.00164795 29.0876V11.7554H25.8161V29.0876C25.8161 29.6446 25.3648 30.0959 24.8078 30.0959Z" fill="#F3AC47"/>
<path d="M12.9088 0.556213L0 11.755L12.9088 22.9539L25.8177 11.755L12.9088 0.556213Z" fill="#456074"/>
<path d="M12.9088 18.8968L0.320007 29.8195C0.500528 29.9899 0.742097 30.0959 1.00992 30.0959H24.8081C25.0756 30.0959 25.3175 29.9899 25.498 29.8195C24.8918 29.2941 12.9088 18.8968 12.9088 18.8968Z" fill="#F19A3D"/>
<path d="M3.44728 3.12157V10.3063V13.4322L10.5703 19.6129L12.9088 17.5839C12.9088 17.5839 13.8636 18.4123 15.2474 19.6129L22.3704 13.4322V10.3063V3.12157H3.44728Z" fill="#F0F0F0"/>
<path d="M19.9229 6.02434H5.89481V7.00899H19.9229V6.02434Z" fill="#DC6754"/>
<path d="M19.9229 9.30652H5.89481V10.2912H19.9229V9.30652Z" fill="#DC6754"/>
<path d="M12.2524 12.5887H5.89481V13.5734H12.2524V12.5887Z" fill="#DC6754"/>
</svg>
