<svg width="30" height="30" viewBox="0 0 30 30" fill="none" xmlns="http://www.w3.org/2000/svg">
<path fill-rule="evenodd" clip-rule="evenodd" d="M0.747818 29.2549L2.7616 21.9343C1.51924 19.7921 0.865924 17.3611 0.866672 14.8712C0.870409 7.08168 7.23618 0.744339 15.0596 0.744339C18.8562 0.745828 22.4188 2.21739 25.0986 4.88735C27.7777 7.55806 29.2532 11.1071 29.2517 14.8824C29.2488 22.6719 22.8815 29.01 15.0596 29.01C15.0588 29.01 15.0596 29.01 15.0596 29.01H15.0536C12.6788 29.0093 10.3443 28.416 8.27147 27.2898L0.747818 29.2549Z" fill="white"/>
<path fill-rule="evenodd" clip-rule="evenodd" d="M0.747816 29.6271C0.649145 29.6271 0.553465 29.5884 0.482451 29.5169C0.389013 29.4224 0.352385 29.2847 0.387518 29.1574L2.36019 21.9849C1.13727 19.8219 0.492169 17.3655 0.493664 14.872C0.496654 6.87625 7.03061 0.372177 15.0596 0.372177C18.9541 0.373666 22.6131 1.88394 25.3632 4.62461C28.1133 7.36602 29.627 11.0088 29.6255 14.8824C29.6225 22.8774 23.0878 29.3822 15.0596 29.3822C12.6758 29.3815 10.3174 28.7957 8.22438 27.6873L0.84275 29.6144C0.811354 29.6234 0.779959 29.6271 0.747816 29.6271Z" fill="white"/>
<path fill-rule="evenodd" clip-rule="evenodd" d="M15.0596 0.744343C18.8562 0.745832 22.4188 2.2174 25.0986 4.88736C27.7777 7.55806 29.2532 11.1071 29.2517 14.8824C29.2488 22.6719 22.8815 29.01 15.0596 29.01H15.0536C12.6788 29.0093 10.3443 28.416 8.27147 27.2898L0.747814 29.2549L2.7616 21.9343C1.51924 19.7921 0.86592 17.3611 0.866668 14.8712C0.870405 7.08168 7.23617 0.744343 15.0596 0.744343ZM15.0596 0C6.82505 0 0.122899 6.6708 0.119161 14.8712C0.118414 17.3774 0.753794 19.8472 1.95878 22.0333L0.0264703 29.0592C-0.0437953 29.3159 0.0279653 29.5899 0.216337 29.7789C0.358363 29.9218 0.550473 30 0.747814 30C0.811352 30 0.874891 29.9918 0.937681 29.9754L8.17878 28.0848C10.2927 29.1775 12.6623 29.7544 15.0536 29.7551C23.2941 29.7551 29.9963 23.0836 30 14.8831C30.0015 10.9091 28.4489 7.17249 25.6286 4.36185C22.8067 1.55047 19.0535 0.00148869 15.0596 0Z" fill="#CFD8DC"/>
<path fill-rule="evenodd" clip-rule="evenodd" d="M23.4032 6.57404C21.1757 4.35441 18.2148 3.13145 15.0633 3.13071C8.55701 3.13071 3.26541 8.39768 3.26242 14.872C3.26167 17.0909 3.88509 19.2509 5.06616 21.1215L5.34722 21.5658L4.15494 25.8987L8.6198 24.733L9.05111 24.9876C10.8616 26.058 12.9381 26.6237 15.0551 26.6244H15.0596C21.5614 26.6244 26.853 21.3567 26.8552 14.8816C26.856 11.7442 25.6308 8.79367 23.4032 6.57404Z" fill="#40C351"/>
<path fill-rule="evenodd" clip-rule="evenodd" d="M11.5119 9.92286C11.2466 9.33482 10.967 9.32291 10.7136 9.31249C10.5065 9.30356 10.2703 9.30431 10.0341 9.30431C9.79789 9.30431 9.41367 9.39288 9.0885 9.74645C8.76334 10.1 7.84689 10.9538 7.84689 12.6911C7.84689 14.4284 9.11766 16.1076 9.29481 16.3428C9.47197 16.578 11.7481 20.2573 15.3526 21.6731C18.3479 22.8491 18.9578 22.6154 19.6082 22.5566C20.2585 22.4978 21.7064 21.7028 22.0017 20.8781C22.2969 20.0534 22.2969 19.347 22.2087 19.1996C22.1198 19.0522 21.8836 18.9644 21.5293 18.7872C21.1749 18.6101 19.431 17.7563 19.1058 17.6387C18.7807 17.5211 18.5445 17.4623 18.3075 17.8159C18.0713 18.1687 17.3918 18.9644 17.1848 19.1996C16.9777 19.4356 16.7706 19.4653 16.4163 19.2882C16.062 19.111 14.9198 18.7389 13.5646 17.536C12.5106 16.6004 11.799 15.4444 11.5919 15.0908C11.3848 14.738 11.5695 14.5467 11.7474 14.3703C11.9066 14.2118 12.1017 13.9579 12.2796 13.7518C12.4568 13.5456 12.5158 13.3982 12.6339 13.163C12.752 12.927 12.693 12.7208 12.604 12.5444C12.5166 12.3673 11.8274 10.621 11.5119 9.92286Z" fill="white"/>
</svg>
